<?xml version="1.0" standalone="no"?>
<!DOCTYPE svg PUBLIC "-//W3C//DTD SVG 20010904//EN"
 "http://www.w3.org/TR/2001/REC-SVG-20010904/DTD/svg10.dtd">
<svg version="1.0" xmlns="http://www.w3.org/2000/svg"
 width="1024.000000pt" height="1024.000000pt" viewBox="0 0 1024.000000 1024.000000"
 preserveAspectRatio="xMidYMid meet">

<g transform="translate(0.000000,1024.000000) scale(0.100000,-0.100000)"
fill="#000000" stroke="none">
<path d="M5013 8173 c-151 -171 -315 -402 -443 -627 -159 -278 -228 -476 -280
-806 -5 -36 -10 -230 -10 -432 l0 -368 -287 -427 -288 -428 0 -537 0 -538 113
0 112 0 0 158 c0 244 38 360 165 500 94 103 214 162 361 178 l62 6 -1 922 c-1
689 2 941 12 1001 30 197 90 361 193 535 l63 105 295 2 295 3 44 -66 c91 -138
163 -309 207 -495 16 -67 18 -163 21 -1040 l4 -966 82 -11 c126 -18 231 -73
332 -176 138 -139 175 -245 175 -503 l0 -153 110 0 110 0 0 536 0 536 -289
428 -290 428 -4 433 c-3 430 -4 435 -30 544 -86 352 -244 667 -515 1027 -90
120 -234 291 -248 295 -6 2 -38 -27 -71 -64z"/>
<path d="M4962 7171 c-158 -59 -252 -225 -222 -393 15 -78 40 -128 96 -188 66
-71 127 -94 244 -95 88 0 100 2 163 33 52 26 79 47 113 90 61 79 77 133 72
241 -5 102 -32 162 -100 228 -93 91 -250 127 -366 84z m225 -208 c120 -97 52
-283 -104 -283 -55 0 -116 34 -141 79 -44 78 -21 165 58 219 51 35 135 28 187
-15z"/>
<path d="M3690 6970 l0 -80 70 0 70 0 0 80 0 80 -70 0 -70 0 0 -80z"/>
<path d="M6337 7044 c-4 -4 -7 -40 -7 -81 l0 -73 75 0 76 0 -3 78 -3 77 -65 3
c-36 2 -69 0 -73 -4z"/>
<path d="M6510 6295 l0 -95 -100 0 -100 0 0 -89 0 -89 100 -7 100 -8 0 -98 0
-99 90 0 90 0 0 100 0 99 98 3 97 3 3 93 3 92 -101 0 -100 0 0 95 0 95 -90 0
-90 0 0 -95z"/>
<path d="M5000 6205 l0 -95 90 0 90 0 0 95 0 95 -90 0 -90 0 0 -95z"/>
<path d="M3620 6104 l0 -95 85 2 85 3 0 93 0 93 -85 0 -85 0 0 -96z"/>
<path d="M5000 5606 l0 -364 83 5 c45 3 83 6 83 7 1 0 4 162 8 359 l7 357 -90
0 -91 0 0 -364z"/>
<path d="M3055 5675 c-40 -40 -30 -96 22 -123 34 -18 62 -14 88 13 50 49 15
135 -55 135 -19 0 -40 -9 -55 -25z"/>
<path d="M6996 5679 c-55 -43 -18 -139 54 -139 72 0 109 96 54 139 -15 12 -39
21 -54 21 -15 0 -39 -9 -54 -21z"/>
<path d="M5300 4348 c0 -1096 -3 -1040 71 -1197 99 -211 284 -382 496 -457 57
-20 123 -31 123 -21 0 1 7 40 15 87 8 47 15 88 15 91 0 4 -34 19 -75 34 -178
65 -326 202 -404 377 -58 129 -56 92 -56 1121 l0 947 -92 0 -93 0 0 -982z"/>
<path d="M3068 5210 c-101 -30 -157 -154 -114 -253 17 -39 71 -92 109 -106
102 -39 222 34 243 146 24 129 -112 251 -238 213z"/>
<path d="M6991 5210 c-97 -24 -158 -130 -131 -229 13 -50 63 -109 107 -127 74
-31 169 -4 219 61 40 53 45 141 12 205 -38 71 -127 110 -207 90z"/>
<path d="M4680 4282 c0 -796 -1 -843 -19 -914 -46 -178 -170 -344 -324 -433
-27 -15 -84 -40 -127 -54 -43 -14 -79 -30 -80 -36 -1 -5 6 -47 16 -92 20 -98
21 -98 142 -57 127 42 226 100 314 182 125 119 207 255 248 416 19 76 20 110
20 953 l0 873 -95 0 -95 0 0 -838z"/>
<path d="M5000 4745 l0 -65 85 0 85 0 0 65 0 65 -85 0 -85 0 0 -65z"/>
<path d="M2630 4655 l0 -65 70 0 70 0 0 65 0 65 -70 0 -70 0 0 -65z"/>
<path d="M7390 4650 l0 -71 68 3 67 3 3 68 3 67 -71 0 -70 0 0 -70z"/>
<path d="M4318 4313 c-4 -220 -7 -255 -26 -313 -12 -36 -22 -68 -22 -71 0 -13
235 -111 244 -101 3 3 6 169 6 369 l0 363 -99 0 -99 0 -4 -247z"/>
<path d="M5650 4190 c0 -304 2 -370 13 -370 8 0 65 25 126 56 92 45 111 58
106 72 -4 9 -18 50 -31 90 -22 68 -24 88 -24 297 l0 225 -95 0 -95 0 0 -370z"/>
<path d="M3072 4400 c-68 -42 -96 -130 -64 -202 25 -55 46 -74 104 -89 60 -16
114 -1 157 43 59 61 64 144 11 210 -44 57 -146 76 -208 38z"/>
<path d="M6935 4402 c-45 -29 -63 -52 -76 -104 -30 -111 71 -215 187 -193 26
4 52 21 81 50 40 39 43 46 43 95 0 59 -25 113 -68 145 -38 28 -128 32 -167 7z"/>
<path d="M2325 4343 c-87 -22 -135 -84 -135 -175 0 -45 5 -62 30 -96 41 -57
80 -75 150 -70 68 5 112 33 141 91 41 80 8 191 -69 231 -33 17 -89 26 -117 19z"/>
<path d="M7745 4335 c-48 -17 -92 -66 -106 -119 -29 -106 55 -216 163 -216 59
0 94 17 136 64 52 60 55 136 7 208 -43 64 -126 91 -200 63z"/>
<path d="M5010 3733 c0 -304 -7 -395 -35 -465 -7 -17 2 -18 110 -18 107 0 117
1 110 18 -29 76 -35 148 -35 460 l0 322 -75 0 -75 0 0 -317z"/>
<path d="M2674 4021 c-82 -37 -116 -115 -87 -202 45 -133 211 -159 297 -46 64
84 32 202 -69 248 -51 23 -89 23 -141 0z"/>
<path d="M7346 4017 c-156 -89 -95 -317 85 -317 39 0 109 40 134 78 53 78 21
196 -65 240 -56 28 -104 28 -154 -1z"/>
<path d="M5925 3788 c-22 -17 -68 -44 -103 -61 l-64 -30 49 -49 c28 -29 78
-64 122 -86 l75 -37 610 0 611 0 3 92 3 92 -553 3 -553 3 -55 28 c-30 16 -66
39 -80 52 l-25 23 -40 -30z"/>
<path d="M4170 3789 c-14 -12 -47 -33 -75 -48 l-50 -26 -552 -3 -553 -3 0 -94
0 -95 578 0 c621 0 637 1 741 53 43 21 141 102 141 115 0 4 -32 22 -70 41 -38
19 -79 45 -91 58 -27 28 -37 28 -69 2z"/>
<path d="M2125 3578 c-33 -18 -45 -40 -45 -85 0 -58 33 -93 88 -93 29 0 44 7
64 28 35 38 40 58 24 96 -24 58 -81 82 -131 54z"/>
<path d="M7931 3573 c-53 -44 -42 -135 21 -166 36 -17 39 -17 74 -1 97 46 68
184 -40 184 -18 0 -43 -8 -55 -17z"/>
<path d="M4385 3440 c-10 -11 -43 -32 -72 -47 -47 -22 -54 -29 -48 -47 4 -12
17 -57 28 -101 11 -44 21 -81 23 -83 6 -9 93 45 135 85 45 42 96 110 88 117
-2 1 -20 12 -39 24 -20 11 -46 32 -59 46 -29 31 -33 32 -56 6z"/>
<path d="M5740 3445 c-7 -8 -37 -29 -66 -46 -30 -17 -54 -34 -54 -39 0 -22 91
-118 150 -157 72 -49 90 -53 90 -20 0 22 30 134 45 169 5 13 -2 21 -32 33 -21
9 -55 29 -75 45 -43 35 -42 35 -58 15z"/>
<path d="M2545 3366 c-94 -42 -130 -147 -84 -244 55 -112 194 -132 282 -41 20
22 37 46 37 54 0 13 56 15 400 15 l401 0 -3 93 -3 92 -425 5 c-377 4 -429 7
-462 23 -44 20 -101 21 -143 3z"/>
<path d="M7470 3360 c-34 -18 -64 -19 -732 -20 l-698 0 0 -95 0 -95 670 0 670
0 9 -23 c14 -36 76 -85 123 -98 107 -28 217 59 218 174 0 67 -52 143 -113 166
-43 17 -108 12 -147 -9z"/>
<path d="M3727 3333 c-3 -6 -2 -117 2 -175 1 -5 89 -8 196 -8 l195 0 0 95 0
95 -194 0 c-107 0 -197 -3 -199 -7z"/>
<path d="M4926 3039 c-58 -134 -168 -272 -295 -371 -36 -28 -70 -55 -74 -59
-5 -4 17 -41 48 -83 l56 -76 30 17 c61 36 188 144 246 210 81 93 137 178 188
287 69 150 75 136 -58 136 l-114 0 -27 -61z"/>
<path d="M2891 2908 c-152 -81 -98 -311 72 -311 66 0 110 22 143 73 49 74 20
196 -57 235 -54 28 -109 29 -158 3z"/>
<path d="M7124 2911 c-120 -55 -120 -242 0 -300 54 -26 88 -26 143 0 119 57
123 231 8 296 -49 28 -96 29 -151 4z"/>
<path d="M3240 2745 l0 -95 386 0 386 0 -6 23 c-3 12 -11 55 -18 95 l-12 72
-368 0 -368 0 0 -95z"/>
<path d="M6165 2828 c-2 -7 -9 -40 -15 -73 -6 -33 -13 -70 -16 -82 l-4 -23
395 0 395 0 0 95 0 95 -375 0 c-292 0 -377 -3 -380 -12z"/>
<path d="M5311 2740 c-40 -32 -72 -62 -72 -66 4 -29 224 -224 254 -224 5 0
117 147 117 154 0 2 -24 21 -52 42 -29 21 -80 64 -113 96 l-60 57 -74 -59z"/>
<path d="M5675 2463 c-31 -47 -55 -86 -53 -88 2 -1 36 -19 76 -39 62 -31 179
-70 275 -91 15 -3 25 -10 22 -16 -10 -16 23 -102 51 -133 53 -57 135 -71 210
-37 107 48 138 190 62 277 -43 48 -69 60 -171 73 -119 16 -246 53 -339 100
l-77 38 -56 -84z"/>
<path d="M4380 2515 c-69 -37 -215 -82 -310 -95 -122 -17 -168 -30 -202 -58
-41 -35 -61 -79 -61 -137 -1 -102 65 -175 166 -182 97 -8 178 57 193 153 5 37
10 45 33 50 119 27 347 116 339 133 -10 20 -104 160 -108 160 -3 0 -25 -11
-50 -24z"/>
<path d="M4988 2360 l3 -110 100 0 99 0 0 110 0 110 -102 0 -103 0 3 -110z"/>
<path d="M4581 2226 c-25 -26 -30 -70 -12 -104 12 -23 60 -52 85 -52 23 0 73
47 80 75 8 30 -15 80 -43 95 -35 18 -86 12 -110 -14z"/>
<path d="M5455 2225 c-56 -55 -16 -145 64 -145 52 0 96 47 87 94 -14 71 -102
101 -151 51z"/>
<path d="M5029 2101 c-90 -29 -148 -139 -119 -226 26 -78 90 -126 169 -127 55
0 94 17 133 59 99 105 33 282 -112 298 -25 2 -57 1 -71 -4z"/>
</g>
</svg>
